<?xml version="1.0" encoding="UTF-8"?>
<svg xmlns="http://www.w3.org/2000/svg" version="1.1" viewBox="0 0 800 800">
  <defs>
    <style>
      .cls-1 {
        fill: #231c1c;
      }

      .cls-2 {
        fill-rule: evenodd;
      }

      .cls-3 {
        fill: #ea4335;
      }

      .cls-4 {
        fill: #fac546;
      }
    </style>
  </defs>
  <!-- Generator: Adobe Illustrator 28.6.0, SVG Export Plug-In . SVG Version: 1.2.0 Build 709)  -->
  <g>
    <g id="Layer_1">
      <g>
        <path class="cls-3" d="M296.9,551.2c9-21.8,19.3-42.3,31.7-62.4,8.3-13.4,18.1-26.3,25.2-40.5,3.7-11.4,5.3-23.3,8.5-34.9,2.9-10.4,6.9-20.7,11.8-30.3,2.6-5.1,6.3-9.8,9.9-14.3-2-1.2-3.9-2.7-5.8-4.3l-53.8,39.9c-1.6,1.2-3.5,1.8-5.4,1.8s-3.8-.6-5.4-1.8L30,193.8v295.3l175.4-126.2c4.1-2.9,9.7-2,12.6,2.1,2.9,4,2,9.7-2.1,12.6L30,511.3v12.4c0,20,16.2,36.1,36.1,36.1h228.7c.3-3.1.9-6,1.9-8.7Z"/>
        <path class="cls-3" d="M366.6,350.7c-2.3-3.9-4-8-4.8-11.8-5.6-28.6-12.4-57.7-11.5-87,.5-16.1,2.5-32.5,8.2-47.6,4.6-12.3,10.3-24.2,15.6-36.1,1.9-4.9,3.5-10,4.7-15.1.7-8.7,1.3-17.6,4.4-25.6.1-.4.3-.7.4-1.1H66.2c-20,0-36.1,16.2-36.1,36.1v8.9l289,214.7,47.6-35.4Z"/>
      </g>
      <path class="cls-4" d="M-160.2,300.9l-190,340,60-260-80-10L-190.2,20.9l-60,270,90,10Z"/>
      <path class="cls-1" d="M840.7,660.5c-1,0-2,0-4-1-5-2-7-7-6-12l58-248-69-9c-3,0-6-2-8-5s-2-6,0-9L991.7,26.5c2-4,8-7,12-5,5,2,7,7,6,12l-58,259,79,9c3,0,6,2,8,5s1,7,0,9l-190,340c-1,3-4,5-8,5h0Z"/>
      <path class="cls-1" d="M941.5,544.1l66,8c3,0,5,2,7,4s2,5,2,8l-44,192,148-266-75-8c-3,0-5-2-7-4s-2-5-2-8l43-194-138,268h0Z"/>
      <g>
        <path class="cls-4" d="M-85.3,308.1l-190,340,60-260-80-10L-115.3,28.1l-60,270,90,10Z"/>
        <path class="cls-1" d="M-275.3,658.1c-1,0-2,0-4-1-5-2-7-7-6-12l58-248-69-9c-3,0-6-2-8-5s-2-6,0-9L-124.3,24.1c2-4,8-7,12-5,5,2,7,7,6,12l-58,259,79,9c3,0,6,2,8,5s1,7,0,9l-190,340c-1,3-4,5-8,5h0ZM-280.3,370.1l66,8c3,0,5,2,7,4s2,5,2,8l-44,192L-101.3,316.1l-75-8c-3,0-5-2-7-4s-2-5-2-8l43-194-138,268h0Z"/>
      </g>
      <g>
        <path class="cls-3" d="M422.1,376.6c-4-2.9-5-8.6-2.1-12.6,2.9-4,8.6-5,12.6-2.1l175.4,126.3V192.9l-283.6,210.7c-1.6,1.2-3.5,1.8-5.4,1.8s-3.8-.6-5.4-1.8L30,192.9v295.3l175.4-126.2c4.1-2.9,9.7-2,12.6,2.1,2.9,4,2,9.7-2.1,12.6L30,510.4v12.4c0,20,16.2,36.1,36.1,36.1h505.8c20,0,36.1-16.2,36.1-36.1v-12.4l-185.9-133.8Z"/>
        <path class="cls-3" d="M319,385.1l289-214.7v-8.9c0-20-16.2-36.1-36.1-36.1H66.2c-20,0-36.1,16.2-36.1,36.1v8.9l289,214.7Z"/>
      </g>
      <path class="cls-2" d="M418.5,114.1c55.4,51.6,58.5,138.4,6.9,193.8l-59.5,63.9,36.5,34-34,36.5,36.5,34,1.3,35.2-68,73-73-68-6.5-181.9c-9.6-5.3-18.8-11.9-27.2-19.7-55.4-51.6-58.5-138.4-6.9-193.8,51.6-55.4,138.4-58.5,193.8-6.9ZM340.1,143.3c10.1,9.4,10.6,25.2,1.3,35.2-9.4,10.1-25.2,10.6-35.2,1.3-10.1-9.4-10.6-25.2-1.3-35.2,9.4-10.1,25.2-10.6,35.2-1.3Z"/>
    </g>
  </g>
</svg>