<?xml version="1.0" encoding="UTF-8"?>
<svg xmlns="http://www.w3.org/2000/svg" xmlns:xlink="http://www.w3.org/1999/xlink" version="1.1" viewBox="0 0 415 415">
  <defs>
    <style>
      .cls-1 {
        fill: url(#linear-gradient);
      }

      .cls-2 {
        fill: #a684bc;
      }

      .cls-3 {
        fill: #00ffc2;
      }

      .cls-4 {
        fill: #e8a33f;
      }

      .cls-5 {
        fill: #b2791f;
      }

      .cls-6 {
        fill: #04b788;
      }
    </style>
    <linearGradient id="linear-gradient" x1="609.5" y1="-106.2" x2="939.8" y2="465.8" gradientUnits="userSpaceOnUse">
      <stop offset="0" stop-color="#c694ff"/>
      <stop offset="1" stop-color="#8c00aa"/>
    </linearGradient>
  </defs>
  <!-- Generator: Adobe Illustrator 28.6.0, SVG Export Plug-In . SVG Version: 1.2.0 Build 709)  -->
  <g>
    <g id="Layer_1">
      <circle class="cls-2" cx="-570" cy="-214.3" r="266.3"/>
      <rect class="cls-1" x="507.9" y="-87" width="533.6" height="533.6" rx="93.3" ry="93.3"/>
      <g>
        <path class="cls-6" d="M384.8,260.9l-115-115c-8.3-8.3-18.7-13.9-29.8-15.2l-91.5-13.9c-21.5-2.8-38.1,13.9-34.6,34.6l13.9,91.5c1.4,11.1,6.9,21.5,15.2,29.8l115,115.7c8.3,7.6,20.8,8.3,27.7,1.4l100.5-100.5c6.9-6.9,6.2-19.4-1.4-28.4ZM183,204.4c-9.8,0-17.7-7.9-17.7-17.7s7.9-17.7,17.7-17.7,17.7,7.9,17.7,17.7-7.9,17.7-17.7,17.7Z"/>
        <path class="cls-4" d="M116.6,5.9c-48.2,0-85.9,40.9-85.9,90.8s38.4,90.1,86.6,90.1h5.3l-5.3-34.6c-3-20.8,12.8-37.4,33.2-34.6l48.2,7.6c3-9,4.5-18.7,4.5-29.1,0-49.9-38.4-90.1-86.6-90.1ZM114,88.3c-9.2,0-16.6-7.4-16.6-16.6s7.4-16.6,16.6-16.6,16.6,7.4,16.6,16.6-7.4,16.6-16.6,16.6Z"/>
        <path class="cls-4" d="M152,308l-24.3-24.3,13.2-13.2c-6.9-7.6-11.8-17.3-13.2-27l-8.3-56.8h-5.5c-15.2,0-29.1-3.5-41.6-10.4v197.5l41.6,34.6,41.6-34.6v-13.9l-27.7-27.7,24.3-24.3Z"/>
        <path class="cls-5" d="M100,366.9c-4.2,0-6.9-2.8-6.9-6.9v-174.6c0-4.2,2.8-6.9,6.9-6.9s6.9,2.8,6.9,6.9v174.6c0,4.2-2.8,6.9-6.9,6.9Z"/>
        <path class="cls-3" d="M370.9,274.7l-115-115c-8.3-7.6-18-13.9-28.4-15.9l-85.9-18.7c-20.1-4.2-34,9.7-29.8,29.8l18.7,85.9c2.1,10.4,7.6,20.1,15.9,28.4l115,115c8.3,8.3,19.4,9.7,25.6,3.5l86.6-86.6c6.2-5.5,4.9-17.3-2.8-26.3ZM183,204.4c-9.8,0-17.7-7.9-17.7-17.7s7.9-17.7,17.7-17.7,17.7,7.9,17.7,17.7-7.9,17.7-17.7,17.7Z"/>
        <path d="M273.2,401.5h-1.4c-6.9-.7-13.2-3.5-18.7-8.3l-115-115.7c-9-9-15.2-20.8-17.3-33.3l-13.9-91.5c-2.1-12.5,2.1-24.3,10.4-32.6,8.3-8.3,20.1-11.8,32.6-10.4l91.5,13.9c12.5,2.1,24.3,7.6,33.3,17.3l115,115c10.4,10.4,11.8,27.7,1.4,37.4l-100.5,101.2c-4.2,4.9-10.4,6.9-17.3,6.9ZM143.6,124.3c-6.2,0-11.8,2.1-16.6,6.2-4.9,4.9-7.6,12.5-6.2,20.1l13.9,91.5c1.4,9.7,6.2,18.7,13.2,25.6l115,115c2.8,2.8,6.2,4.2,9.7,4.2s6.2-.7,8.3-2.8l100.5-100.5c4.2-4.2,3.5-12.5-1.4-17.3l-115.7-115c-6.9-6.9-15.9-11.8-25.6-13.2l-91.5-13.9h-3.5Z"/>
        <path d="M113.8,193.6c-53.4,0-97-43.7-97-97S60.5-.4,113.8-.4s97,43.7,97,97-1.4,20.8-4.9,31.2c-1.4,3.5-4.2,4.9-7.6,4.9l-50.6-8.3c-7.6-1.4-15.2,1.4-20.1,6.2-4.9,4.9-7.6,12.5-6.2,20.1h0l4.9,34c0,2.1,0,4.2-1.4,5.5s-2.8,2.8-4.9,2.8h-1.4c-2.1.7-3.5.7-4.9.7ZM113.8,13.5c-45.7,0-83.2,37.4-83.2,83.2s36,81.8,80.4,83.2l-4.2-26.3c-2.1-12.5,2.1-24.3,10.4-32.6,8.3-8.3,20.1-11.8,32.6-10.4l44.3,6.9c2.1-6.9,2.8-13.9,2.8-20.8,0-45.7-37.4-83.2-83.2-83.2Z"/>
        <path d="M203.9,193.6c-14.6,0-29.1-3.5-42.3-9.7-34-16.6-54.7-49.9-54.7-87.3s0-4.9.7-7.6c1.4-14.6,5.5-28.4,12.5-40.9l11.8,6.9c-6.2,10.4-9.7,22.2-10.4,34.6v6.2c0,31.9,18,60.3,47.1,74.8,11.8,5.5,23.6,8.3,36,8.3v14.6h-.7Z"/>
        <path d="M113.8,415.4c-1.4,0-3.5-.7-4.2-1.4l-41.6-34.6c-2.1-1.4-2.8-3.5-2.8-5.5v-197.5c0-2.1,1.4-4.9,3.5-6.2,2.1-1.4,4.9-1.4,6.9,0,11.8,6.2,24.9,9.7,38.1,9.7h4.9c3.5,0,6.9,2.1,6.9,5.5l9,56.8c1.4,8.3,5.5,16.6,11.1,23.6,2.8,2.8,2.1,6.9,0,9.7l-8.3,8.3,19.4,19.4c2.8,2.8,2.8,6.9,0,9.7l-19.4,19.4,22.9,22.9c1.4,1.4,2.1,2.8,2.1,4.9v13.9c0,2.1-.7,4.2-2.8,5.5l-41.6,34.6c-.7.7-2.8,1.4-4.2,1.4ZM79.2,370.3l34.6,29.1,34.6-29.1v-7.6l-25.6-25.6c-2.8-2.8-2.8-6.9,0-9.7l19.4-19.4-19.4-19.4c-2.8-2.8-2.8-6.9,0-9.7l9-9c-5.5-7.6-9-16.6-10.4-25.6l-8.3-50.6c-11.8,0-23.6-2.1-34-6.2,0,0,0,182.9,0,182.9Z"/>
        <path d="M183.1,214.4c-15.2,0-27.7-12.5-27.7-27.7s12.5-27.7,27.7-27.7,27.7,12.5,27.7,27.7-12.5,27.7-27.7,27.7ZM183.1,172.9c-7.6,0-13.9,6.2-13.9,13.9s6.2,13.9,13.9,13.9,13.9-6.2,13.9-13.9-6.2-13.9-13.9-13.9Z"/>
        <path d="M113.8,96.6c-15.2,0-27.7-12.5-27.7-27.7s12.5-27.7,27.7-27.7,27.7,12.5,27.7,27.7-12.5,27.7-27.7,27.7ZM113.8,55.1c-7.6,0-13.9,6.2-13.9,13.9s6.2,13.9,13.9,13.9,13.9-6.2,13.9-13.9-6.2-13.9-13.9-13.9Z"/>
        <path d="M277.4,153.5l-11.1-8.3c9-13.2,13.9-29.1,13.9-45,0-43.7-36-79.7-79.7-79.7s-22.9,2.8-34,7.6l-5.5-12.5c12.5-6.2,25.6-9,39.5-9,51.3,0,93.5,42.3,93.5,93.5,0,18.7-5.5,37.4-16.6,53.4Z"/>
        <g>
          <path d="M194.8,271.5l-3.8,11.1-5.8-6,4.4-13.7,4.9-4.8,31.9,32.7-6.5,6.3-25-25.7Z"/>
          <path d="M233.2,276.7c-1.8-1.9-3.1-3.8-3.7-5.9-.7-2-.6-4.4,0-7l4.9-18.2c.3-.9.3-1.7,0-2.6s-.6-1.6-1.1-2.2l-1.5-1.5c-.8-.9-1.9-1.3-3-1.2-1.2,0-2.2.6-3.3,1.6l-4.3,4.2c-1.2,1.2-1.7,2.6-1.6,4.1.2,1.6,1.1,3.1,2.6,4.8l-6.5,6.3c-3.3-3.4-5-6.9-5-10.6,0-3.7,1.5-7.1,4.8-10.2l4.4-4.3c2-1.9,4-3.2,6.2-4,2.2-.7,4.3-.9,6.4-.4,2.1.5,4,1.6,5.6,3.3l1.5,1.5c1.6,1.7,2.7,3.5,3.2,5.4.5,1.9.4,4-.3,6.3l-4.9,17.5c-.3,1.2-.4,2.2-.3,3.1.1.9.6,1.8,1.3,2.5l18.1-17.6,5.5,5.6-24.6,24-4.6-4.7Z"/>
          <path d="M280.3,211.9c1.8.4,3.2,1.2,4.4,2.4l1.8,1.9c1.8,1.8,2.9,3.9,3.3,6.1s.2,4.6-.6,7c-.9,2.4-2.4,4.6-4.6,6.7l-4.5,4.4c-3.3,3.2-6.9,4.8-10.6,4.8-3.7,0-7.3-1.8-10.6-5.2l6.4-6.2c1.6,1.6,3.2,2.5,4.8,2.7,1.6.2,3.1-.4,4.5-1.8l4.5-4.4c1.3-1.3,2.1-2.6,2.2-4.1.2-1.4-.2-2.7-1.3-3.7l-1.8-1.9c-.9-1-2.1-1.3-3.5-1.1-1.4.2-2.8,1-4.1,2.3l-6,5.8-5.5-5.6,6-5.8c1.2-1.2,1.9-2.4,2-3.6.2-1.3-.2-2.4-1.1-3.3l-1.8-1.9c-.8-.9-1.9-1.2-3.1-1.1-1.2.2-2.3.8-3.4,1.8l-4.5,4.4c-1.3,1.2-1.8,2.7-1.7,4.2.2,1.6,1,3.2,2.6,4.8l-6.5,6.3c-3.3-3.4-5-7-5-10.7,0-3.7,1.7-7.2,5-10.4l4.5-4.4c2-1.9,4.1-3.3,6.4-4.1,2.2-.8,4.4-.9,6.5-.5,2.1.5,4,1.6,5.6,3.2l1.8,1.9c1.1,1.2,1.9,2.5,2.3,4.1.4,1.6.4,3.3,0,5,2-.5,3.9-.5,5.7-.1Z"/>
          <path d="M270.2,342.3l-13.3,13c-1.3,1.3-2.6,2-3.9,2.1-1.3.1-2.4-.3-3.4-1.4l-1.3-1.3-3.9-38.8,6.5-6.3,20.2,20.8,4.1-4,5.6,5.7-4.1,4,6.1,6.3-6.5,6.3-6.1-6.3ZM265.1,336.7l-12.6-13h0s2.4,23,2.4,23l10.3-10Z"/>
          <path d="M294.7,329.3c-3.6,0-7-1.8-10.2-5l6.4-6.2c1.4,1.5,2.9,2.3,4.4,2.5,1.5.2,2.9-.3,4.1-1.6l4.5-4.4c1.4-1.3,2.1-2.8,2.2-4.3,0-1.6-.5-3-1.7-4.2l-2.5-2.5c-1.1-1.1-2.4-1.6-3.9-1.4-1.5.2-3,.9-4.4,2.3l-13.5,13.2-16.6-17.1,23.4-22.8,5.6,5.7-17,16.5,5.5,5.7,7.1-6.9c2.2-2.2,4.5-3.7,7-4.5,2.4-.9,4.8-1,7.1-.5,2.3.5,4.4,1.7,6.2,3.6l2.5,2.5c1.9,1.9,3.1,4.1,3.6,6.5.5,2.4.4,4.8-.5,7.2-.9,2.4-2.4,4.7-4.6,6.8l-4.5,4.4c-3.2,3.2-6.7,4.7-10.3,4.6Z"/>
          <path d="M331.1,296.2c-2.6.8-5.2.8-7.8,0-2.6-.8-4.9-2.2-7.1-4.4l-11.2-11.5c-2.1-2.2-3.5-4.5-4.2-7.1-.7-2.6-.6-5.1.2-7.7.8-2.6,2.4-5,4.6-7.1l4-3.9c2-1.9,4.1-3.2,6.4-3.9,2.3-.7,4.6-.7,6.8,0,2.3.6,4.3,1.9,6.2,3.8l-6.4,6.2c-1.1-1.2-2.4-1.8-3.7-1.8-1.4,0-2.6.4-3.7,1.5l-4,3.9c-1.5,1.4-2.2,3-2.1,4.9,0,1.8.8,3.5,2.3,5.1l3.6,3.6c0-1.6.4-3.1,1.1-4.7.7-1.6,1.6-2.9,2.6-3.9l3.1-3c2.1-2,4.3-3.4,6.7-4.2,2.3-.8,4.7-.9,6.9-.3,2.3.6,4.3,1.8,6.1,3.7l1.9,1.9c2,2,3.2,4.3,3.8,6.7.5,2.5.3,4.9-.6,7.5-.9,2.5-2.5,4.9-4.7,7.1l-3.4,3.3c-2.3,2.2-4.7,3.7-7.4,4.5ZM336.6,283c1.5-1.5,2.3-3.1,2.3-4.8,0-1.7-.6-3.3-2-4.8l-1.9-1.9c-1.2-1.2-2.5-1.8-4-1.8-1.5,0-2.8.6-4.1,1.8l-3.1,3c-1.5,1.5-2.4,3.2-2.7,5.1-.3,1.9.1,3.8,1.2,5.5l1.5,1.6c1.3,1.3,2.8,1.9,4.5,1.8,1.7,0,3.3-.9,4.8-2.3l3.3-3.2Z"/>
        </g>
      </g>
      <g>
        <path class="cls-6" d="M865.2,235.6l-115-115c-8.3-8.3-18.7-13.9-29.8-15.2l-91.5-13.9c-21.5-2.8-38.1,13.9-34.6,34.6l13.9,91.5c1.4,11.1,6.9,21.5,15.2,29.8l115,115.7c8.3,7.6,20.8,8.3,27.7,1.4l100.5-100.5c6.9-6.9,6.2-19.4-1.4-28.4ZM663.4,179.1c-9.8,0-17.7-7.9-17.7-17.7s7.9-17.7,17.7-17.7,17.7,7.9,17.7,17.7-7.9,17.7-17.7,17.7Z"/>
        <path class="cls-4" d="M597-19.4c-48.2,0-85.9,40.9-85.9,90.8s38.4,90.1,86.6,90.1h5.3l-5.3-34.6c-3-20.8,12.8-37.4,33.2-34.6l48.2,7.6c3-9,4.5-18.7,4.5-29.1,0-49.9-38.4-90.1-86.6-90.1ZM594.4,63c-9.2,0-16.6-7.4-16.6-16.6s7.4-16.6,16.6-16.6,16.6,7.4,16.6,16.6-7.4,16.6-16.6,16.6Z"/>
        <path class="cls-4" d="M632.4,282.7l-24.3-24.3,13.2-13.2c-6.9-7.6-11.8-17.3-13.2-27l-8.3-56.8h-5.5c-15.2,0-29.1-3.5-41.6-10.4v197.5l41.6,34.6,41.6-34.6v-13.9l-27.7-27.7,24.3-24.3Z"/>
        <path class="cls-5" d="M580.4,341.6c-4.2,0-6.9-2.8-6.9-6.9v-174.6c0-4.2,2.8-6.9,6.9-6.9s6.9,2.8,6.9,6.9v174.6c0,4.2-2.8,6.9-6.9,6.9Z"/>
        <path class="cls-3" d="M851.3,249.4l-115-115c-8.3-7.6-18-13.9-28.4-15.9l-85.9-18.7c-20.1-4.2-34,9.7-29.8,29.8l18.7,85.9c2.1,10.4,7.6,20.1,15.9,28.4l115,115c8.3,8.3,19.4,9.7,25.6,3.5l86.6-86.6c6.2-5.5,4.9-17.3-2.8-26.3ZM663.4,179.1c-9.8,0-17.7-7.9-17.7-17.7s7.9-17.7,17.7-17.7,17.7,7.9,17.7,17.7-7.9,17.7-17.7,17.7Z"/>
        <path d="M753.6,376.2h-1.4c-6.9-.7-13.2-3.5-18.7-8.3l-115-115.7c-9-9-15.2-20.8-17.3-33.3l-13.9-91.5c-2.1-12.5,2.1-24.3,10.4-32.6,8.3-8.3,20.1-11.8,32.6-10.4l91.5,13.9c12.5,2.1,24.3,7.6,33.3,17.3l115,115c10.4,10.4,11.8,27.7,1.4,37.4l-100.5,101.2c-4.2,4.9-10.4,6.9-17.3,6.9ZM624,99.1c-6.2,0-11.8,2.1-16.6,6.2-4.9,4.9-7.6,12.5-6.2,20.1l13.9,91.5c1.4,9.7,6.2,18.7,13.2,25.6l115,115c2.8,2.8,6.2,4.2,9.7,4.2s6.2-.7,8.3-2.8l100.5-100.5c4.2-4.2,3.5-12.5-1.4-17.3l-115.7-115c-6.9-6.9-15.9-11.8-25.6-13.2l-91.5-13.9h-3.5Z"/>
        <path d="M594.3,168.3c-53.4,0-97-43.7-97-97s43.7-97,97-97,97,43.7,97,97-1.4,20.8-4.9,31.2c-1.4,3.5-4.2,4.9-7.6,4.9l-50.6-8.3c-7.6-1.4-15.2,1.4-20.1,6.2-4.9,4.9-7.6,12.5-6.2,20.1h0l4.9,34c0,2.1,0,4.2-1.4,5.5s-2.8,2.8-4.9,2.8h-1.4c-2.1.7-3.5.7-4.9.7ZM594.3-11.8c-45.7,0-83.2,37.4-83.2,83.2s36,81.8,80.4,83.2l-4.2-26.3c-2.1-12.5,2.1-24.3,10.4-32.6,8.3-8.3,20.1-11.8,32.6-10.4l44.3,6.9c2.1-6.9,2.8-13.9,2.8-20.8,0-45.7-37.4-83.2-83.2-83.2Z"/>
        <path d="M684.3,168.3c-14.6,0-29.1-3.5-42.3-9.7-34-16.6-54.7-49.9-54.7-87.3s0-4.9.7-7.6c1.4-14.6,5.5-28.4,12.5-40.9l11.8,6.9c-6.2,10.4-9.7,22.2-10.4,34.6v6.2c0,31.9,18,60.3,47.1,74.8,11.8,5.5,23.6,8.3,36,8.3v14.6h-.7Z"/>
        <path d="M594.3,390.1c-1.4,0-3.5-.7-4.2-1.4l-41.6-34.6c-2.1-1.4-2.8-3.5-2.8-5.5v-197.5c0-2.1,1.4-4.9,3.5-6.2,2.1-1.4,4.9-1.4,6.9,0,11.8,6.2,24.9,9.7,38.1,9.7h4.9c3.5,0,6.9,2.1,6.9,5.5l9,56.8c1.4,8.3,5.5,16.6,11.1,23.6,2.8,2.8,2.1,6.9,0,9.7l-8.3,8.3,19.4,19.4c2.8,2.8,2.8,6.9,0,9.7l-19.4,19.4,22.9,22.9c1.4,1.4,2.1,2.8,2.1,4.9v13.9c0,2.1-.7,4.2-2.8,5.5l-41.6,34.6c-.7.7-2.8,1.4-4.2,1.4ZM559.6,345l34.6,29.1,34.6-29.1v-7.6l-25.6-25.6c-2.8-2.8-2.8-6.9,0-9.7l19.4-19.4-19.4-19.4c-2.8-2.8-2.8-6.9,0-9.7l9-9c-5.5-7.6-9-16.6-10.4-25.6l-8.3-50.6c-11.8,0-23.6-2.1-34-6.2,0,0,0,182.9,0,182.9Z"/>
        <path d="M663.5,189.1c-15.2,0-27.7-12.5-27.7-27.7s12.5-27.7,27.7-27.7,27.7,12.5,27.7,27.7-12.5,27.7-27.7,27.7ZM663.5,147.6c-7.6,0-13.9,6.2-13.9,13.9s6.2,13.9,13.9,13.9,13.9-6.2,13.9-13.9-6.2-13.9-13.9-13.9Z"/>
        <path d="M594.3,71.3c-15.2,0-27.7-12.5-27.7-27.7s12.5-27.7,27.7-27.7,27.7,12.5,27.7,27.7-12.5,27.7-27.7,27.7ZM594.3,29.8c-7.6,0-13.9,6.2-13.9,13.9s6.2,13.9,13.9,13.9,13.9-6.2,13.9-13.9-6.2-13.9-13.9-13.9Z"/>
        <path d="M757.8,128.2l-11.1-8.3c9-13.2,13.9-29.1,13.9-45,0-43.7-36-79.7-79.7-79.7s-22.9,2.8-34,7.6l-5.5-12.5c12.5-6.2,25.6-9,39.5-9,51.3,0,93.5,42.3,93.5,93.5,0,18.7-5.5,37.4-16.6,53.4Z"/>
        <g>
          <path d="M675.2,246.2l-3.8,11.1-5.8-6,4.4-13.7,4.9-4.8,31.9,32.7-6.5,6.3-25-25.7Z"/>
          <path d="M713.6,251.4c-1.8-1.9-3.1-3.8-3.7-5.9-.7-2-.6-4.4,0-7l4.9-18.2c.3-.9.3-1.7,0-2.6s-.6-1.6-1.1-2.2l-1.5-1.5c-.8-.9-1.9-1.3-3-1.2-1.2,0-2.2.6-3.3,1.6l-4.3,4.2c-1.2,1.2-1.7,2.6-1.6,4.1.2,1.6,1.1,3.1,2.6,4.8l-6.5,6.3c-3.3-3.4-5-6.9-5-10.6,0-3.7,1.5-7.1,4.8-10.2l4.4-4.3c2-1.9,4-3.2,6.2-4,2.2-.7,4.3-.9,6.4-.4,2.1.5,4,1.6,5.6,3.3l1.5,1.5c1.6,1.7,2.7,3.5,3.2,5.4.5,1.9.4,4-.3,6.3l-4.9,17.5c-.3,1.2-.4,2.2-.3,3.1.1.9.6,1.8,1.3,2.5l18.1-17.6,5.5,5.6-24.6,24-4.6-4.7Z"/>
          <path d="M760.7,186.6c1.8.4,3.2,1.2,4.4,2.4l1.8,1.9c1.8,1.8,2.9,3.9,3.3,6.1s.2,4.6-.6,7c-.9,2.4-2.4,4.6-4.6,6.7l-4.5,4.4c-3.3,3.2-6.9,4.8-10.6,4.8-3.7,0-7.3-1.8-10.6-5.2l6.4-6.2c1.6,1.6,3.2,2.5,4.8,2.7,1.6.2,3.1-.4,4.5-1.8l4.5-4.4c1.3-1.3,2.1-2.6,2.2-4.1.2-1.4-.2-2.7-1.3-3.7l-1.8-1.9c-.9-1-2.1-1.3-3.5-1.1-1.4.2-2.8,1-4.1,2.3l-6,5.8-5.5-5.6,6-5.8c1.2-1.2,1.9-2.4,2-3.6.2-1.3-.2-2.4-1.1-3.3l-1.8-1.9c-.8-.9-1.9-1.2-3.1-1.1-1.2.2-2.3.8-3.4,1.8l-4.5,4.4c-1.3,1.2-1.8,2.7-1.7,4.2.2,1.6,1,3.2,2.6,4.8l-6.5,6.3c-3.3-3.4-5-7-5-10.7,0-3.7,1.7-7.2,5-10.4l4.5-4.4c2-1.9,4.1-3.3,6.4-4.1,2.2-.8,4.4-.9,6.5-.5,2.1.5,4,1.6,5.6,3.2l1.8,1.9c1.1,1.2,1.9,2.5,2.3,4.1.4,1.6.4,3.3,0,5,2-.5,3.9-.5,5.7-.1Z"/>
          <path d="M750.6,317.1l-13.3,13c-1.3,1.3-2.6,2-3.9,2.1-1.3.1-2.4-.3-3.4-1.4l-1.3-1.3-3.9-38.8,6.5-6.3,20.2,20.8,4.1-4,5.6,5.7-4.1,4,6.1,6.3-6.5,6.3-6.1-6.3ZM745.5,311.4l-12.6-13h0s2.4,23,2.4,23l10.3-10Z"/>
          <path d="M775.1,304c-3.6,0-7-1.8-10.2-5l6.4-6.2c1.4,1.5,2.9,2.3,4.4,2.5,1.5.2,2.9-.3,4.1-1.6l4.5-4.4c1.4-1.3,2.1-2.8,2.2-4.3,0-1.6-.5-3-1.7-4.2l-2.5-2.5c-1.1-1.1-2.4-1.6-3.9-1.4-1.5.2-3,.9-4.4,2.3l-13.5,13.2-16.6-17.1,23.4-22.8,5.6,5.7-17,16.5,5.5,5.7,7.1-6.9c2.2-2.2,4.5-3.7,7-4.5,2.4-.9,4.8-1,7.1-.5,2.3.5,4.4,1.7,6.2,3.6l2.5,2.5c1.9,1.9,3.1,4.1,3.6,6.5.5,2.4.4,4.8-.5,7.2-.9,2.4-2.4,4.7-4.6,6.8l-4.5,4.4c-3.2,3.2-6.7,4.7-10.3,4.6Z"/>
          <path d="M811.5,270.9c-2.6.8-5.2.8-7.8,0-2.6-.8-4.9-2.2-7.1-4.4l-11.2-11.5c-2.1-2.2-3.5-4.5-4.2-7.1-.7-2.6-.6-5.1.2-7.7.8-2.6,2.4-5,4.6-7.1l4-3.9c2-1.9,4.1-3.2,6.4-3.9,2.3-.7,4.6-.7,6.8,0,2.3.6,4.3,1.9,6.2,3.8l-6.4,6.2c-1.1-1.2-2.4-1.8-3.7-1.8-1.4,0-2.6.4-3.7,1.5l-4,3.9c-1.5,1.4-2.2,3-2.1,4.9,0,1.8.8,3.5,2.3,5.1l3.6,3.6c0-1.6.4-3.1,1.1-4.7.7-1.6,1.6-2.9,2.6-3.9l3.1-3c2.1-2,4.3-3.4,6.7-4.2,2.3-.8,4.7-.9,6.9-.3,2.3.6,4.3,1.8,6.1,3.7l1.9,1.9c2,2,3.2,4.3,3.8,6.7.5,2.5.3,4.9-.6,7.5-.9,2.5-2.5,4.9-4.7,7.1l-3.4,3.3c-2.3,2.2-4.7,3.7-7.4,4.5ZM817,257.7c1.5-1.5,2.3-3.1,2.3-4.8,0-1.7-.6-3.3-2-4.8l-1.9-1.9c-1.2-1.2-2.5-1.8-4-1.8-1.5,0-2.8.6-4.1,1.8l-3.1,3c-1.5,1.5-2.4,3.2-2.7,5.1-.3,1.9.1,3.8,1.2,5.5l1.5,1.6c1.3,1.3,2.8,1.9,4.5,1.8,1.7,0,3.3-.9,4.8-2.3l3.3-3.2Z"/>
        </g>
      </g>
    </g>
  </g>
</svg>